# xmcd
#
# Track frame offsets:
#	150
#	14078
#	26181
#	41724
#	56967
#	67718
#	102993
#	120330
#	129620
#	138425
#	154849
#	169928
#	185565
#	200060
#
# Disc length: 2935 seconds
#
# Revision: 1
# Processed by: cddbd v1.4PL0 Copyright (c) Steve Scherf et al.
# Submitted via: audiograbber 1.81.02
#
DISCID=d00b750e
DTITLE=Big Ed Sullivan - Big
DYEAR=1999
DGENRE=Blues
TTITLE0=What You Say And What You Do
TTITLE1=Fly Straight Baby
TTITLE2=Slack Mama
TTITLE3=No Good At All
TTITLE4=All Night Baby
TTITLE5=Don't Wanna Sleep
TTITLE6=One Or Two Things
TTITLE7=In The Grave
TTITLE8=Pony Blues
TTITLE9=Haunted House
TTITLE10=Scratch My Back
TTITLE11=Just Once
TTITLE12=Wedding Ring
TTITLE13=Roy The Psycho Cowboy
EXTD=
EXTT0=
EXTT1=
EXTT2=
EXTT3=
EXTT4=
EXTT5=
EXTT6=
EXTT7=
EXTT8=
EXTT9=
EXTT10=
EXTT11=
EXTT12=
EXTT13=
PLAYORDER=
